<mxfile host="app.diagrams.net" modified="2021-01-11T19:07:41.868Z" agent="5.0 (Windows NT 10.0; Win64; x64) AppleWebKit/537.36 (KHTML, like Gecko) Chrome/87.0.4280.60 YaBrowser/20.12.0.963 Yowser/2.5 Safari/537.36" etag="lguIlWvV9vE5rLugrEzI" version="14.1.1" type="github">
  <diagram id="WpKm47cJn8zQT_If5yXC" name="Page-1">
    <mxGraphModel dx="1550" dy="864" grid="1" gridSize="10" guides="1" tooltips="1" connect="1" arrows="1" fold="1" page="1" pageScale="1" pageWidth="1169" pageHeight="827" math="0" shadow="0">
      <root>
        <mxCell id="0" />
        <mxCell id="1" parent="0" />
        <mxCell id="FPDaVl3V5ZqyJCNweq3Q-2" value="" style="shape=internalStorage;whiteSpace=wrap;html=1;backgroundOutline=1;dx=0;dy=26;" vertex="1" parent="1">
          <mxGeometry x="90" y="430" width="190" height="246" as="geometry" />
        </mxCell>
        <mxCell id="FPDaVl3V5ZqyJCNweq3Q-3" value="" style="shape=internalStorage;whiteSpace=wrap;html=1;backgroundOutline=1;dx=0;dy=40;" vertex="1" parent="1">
          <mxGeometry x="880" y="60" width="190" height="246" as="geometry" />
        </mxCell>
        <mxCell id="FPDaVl3V5ZqyJCNweq3Q-4" value="" style="shape=internalStorage;whiteSpace=wrap;html=1;backgroundOutline=1;dx=0;dy=26;" vertex="1" parent="1">
          <mxGeometry x="880" y="430" width="190" height="246" as="geometry" />
        </mxCell>
        <mxCell id="FPDaVl3V5ZqyJCNweq3Q-5" value="" style="shape=internalStorage;whiteSpace=wrap;html=1;backgroundOutline=1;dx=0;dy=26;" vertex="1" parent="1">
          <mxGeometry x="80" y="10" width="190" height="246" as="geometry" />
        </mxCell>
        <mxCell id="FPDaVl3V5ZqyJCNweq3Q-6" value="" style="shape=internalStorage;whiteSpace=wrap;html=1;backgroundOutline=1;dx=0;dy=26;" vertex="1" parent="1">
          <mxGeometry x="500" y="280" width="190" height="246" as="geometry" />
        </mxCell>
        <mxCell id="FPDaVl3V5ZqyJCNweq3Q-8" value="&lt;font style=&quot;font-size: 14px&quot;&gt;Транспортная накладная&lt;/font&gt;" style="text;html=1;strokeColor=none;fillColor=none;align=center;verticalAlign=middle;whiteSpace=wrap;rounded=0;" vertex="1" parent="1">
          <mxGeometry x="880" y="430" width="190" height="30" as="geometry" />
        </mxCell>
        <mxCell id="FPDaVl3V5ZqyJCNweq3Q-9" value="&lt;font style=&quot;font-size: 14px&quot;&gt;Договор&lt;/font&gt;" style="text;html=1;strokeColor=none;fillColor=none;align=center;verticalAlign=middle;whiteSpace=wrap;rounded=0;" vertex="1" parent="1">
          <mxGeometry x="500" y="280" width="190" height="30" as="geometry" />
        </mxCell>
        <mxCell id="FPDaVl3V5ZqyJCNweq3Q-10" value="&lt;font style=&quot;font-size: 14px&quot;&gt;Накладная на внутр. перемещение&lt;/font&gt;" style="text;html=1;strokeColor=none;fillColor=none;align=center;verticalAlign=middle;whiteSpace=wrap;rounded=0;" vertex="1" parent="1">
          <mxGeometry x="880" y="60" width="190" height="40" as="geometry" />
        </mxCell>
        <mxCell id="FPDaVl3V5ZqyJCNweq3Q-11" value="&lt;font style=&quot;font-size: 14px&quot;&gt;Счет фактура&lt;/font&gt;" style="text;html=1;strokeColor=none;fillColor=none;align=center;verticalAlign=middle;whiteSpace=wrap;rounded=0;" vertex="1" parent="1">
          <mxGeometry x="80" y="10" width="190" height="30" as="geometry" />
        </mxCell>
        <mxCell id="FPDaVl3V5ZqyJCNweq3Q-12" value="&lt;font style=&quot;font-size: 14px&quot;&gt;Табель&lt;/font&gt;" style="text;html=1;strokeColor=none;fillColor=none;align=center;verticalAlign=middle;whiteSpace=wrap;rounded=0;" vertex="1" parent="1">
          <mxGeometry x="90" y="430" width="190" height="30" as="geometry" />
        </mxCell>
        <mxCell id="FPDaVl3V5ZqyJCNweq3Q-13" value="Text" style="text;html=1;strokeColor=none;fillColor=none;align=center;verticalAlign=middle;whiteSpace=wrap;rounded=0;" vertex="1" parent="1">
          <mxGeometry x="80" y="40" width="190" height="210" as="geometry" />
        </mxCell>
        <mxCell id="FPDaVl3V5ZqyJCNweq3Q-14" value="кк" style="text;html=1;strokeColor=none;fillColor=none;align=center;verticalAlign=middle;whiteSpace=wrap;rounded=0;" vertex="1" parent="1">
          <mxGeometry x="90" y="460" width="190" height="210" as="geometry" />
        </mxCell>
        <mxCell id="FPDaVl3V5ZqyJCNweq3Q-15" value="Text" style="text;html=1;strokeColor=none;fillColor=none;align=center;verticalAlign=middle;whiteSpace=wrap;rounded=0;" vertex="1" parent="1">
          <mxGeometry x="500" y="309" width="190" height="210" as="geometry" />
        </mxCell>
        <mxCell id="FPDaVl3V5ZqyJCNweq3Q-16" value="Text" style="text;html=1;strokeColor=none;fillColor=none;align=center;verticalAlign=middle;whiteSpace=wrap;rounded=0;" vertex="1" parent="1">
          <mxGeometry x="880" y="106" width="190" height="200" as="geometry" />
        </mxCell>
        <mxCell id="FPDaVl3V5ZqyJCNweq3Q-17" value="Text" style="text;html=1;strokeColor=none;fillColor=none;align=center;verticalAlign=middle;whiteSpace=wrap;rounded=0;" vertex="1" parent="1">
          <mxGeometry x="880" y="460" width="190" height="210" as="geometry" />
        </mxCell>
      </root>
    </mxGraphModel>
  </diagram>
</mxfile>
